<?xml version="1.0" standalone="no"?>
<!DOCTYPE svg PUBLIC "-//W3C//DTD SVG 20010904//EN"
 "http://www.w3.org/TR/2001/REC-SVG-20010904/DTD/svg10.dtd">
<svg version="1.0" xmlns="http://www.w3.org/2000/svg"
 width="500.000000pt" height="500.000000pt" viewBox="0 0 500.000000 500.000000"
 preserveAspectRatio="xMidYMid meet">
<metadata>
Created by potrace 1.16, written by Peter Selinger 2001-2019
</metadata>
<g transform="translate(0.000000,500.000000) scale(0.100000,-0.100000)"
fill="#000000" stroke="none">
<path d="M1700 4689 c-193 -25 -420 -94 -593 -181 -486 -243 -808 -655 -892
-1142 -20 -118 -20 -355 1 -477 49 -287 187 -557 397 -776 l69 -72 -17 -50
c-43 -129 -159 -251 -309 -324 -130 -64 -164 -108 -154 -202 7 -57 35 -95 100
-131 51 -28 58 -29 210 -32 129 -3 177 0 269 18 196 37 482 142 704 258 l90
47 80 -12 c101 -15 423 -16 535 -2 514 63 959 309 1240 684 76 101 182 313
215 430 48 167 58 253 52 450 -7 238 -39 375 -133 575 -233 495 -744 852
-1334 935 -119 16 -416 19 -530 4z m410 -204 c390 -23 831 -241 1070 -529 210
-254 310 -520 310 -827 0 -337 -116 -607 -369 -859 -330 -330 -778 -486 -1308
-458 -71 3 -161 14 -201 23 l-73 17 -87 -49 c-249 -141 -627 -274 -826 -291
-123 -11 -127 -7 -49 44 87 58 153 122 208 205 59 87 83 146 105 256 l19 92
-107 108 c-160 160 -268 333 -336 534 -79 235 -75 544 10 781 192 535 734 916
1359 957 60 4 126 6 145 5 19 -2 78 -6 130 -9z"/>
<path d="M1100 3700 l0 -100 850 0 850 0 0 100 0 100 -850 0 -850 0 0 -100z"/>
<path d="M1100 3200 l0 -100 850 0 850 0 0 100 0 100 -850 0 -850 0 0 -100z"/>
<path d="M1100 2700 l0 -100 600 0 600 0 0 100 0 100 -600 0 -600 0 0 -100z"/>
<path d="M3858 2801 c-10 -48 -20 -94 -23 -103 -5 -12 17 -27 98 -66 341 -162
568 -415 638 -708 32 -133 24 -293 -21 -426 -60 -179 -172 -335 -339 -468 -50
-40 -91 -75 -91 -78 0 -2 9 -35 20 -73 38 -127 124 -227 277 -322 l73 -44 -43
-6 c-53 -7 -219 7 -319 28 -197 40 -358 124 -472 244 l-59 63 -108 -17 c-140
-21 -414 -21 -569 0 -452 63 -823 260 -996 532 l-35 53 -53 0 c-29 0 -81 3
-115 6 -45 5 -61 4 -61 -5 0 -7 16 -44 35 -82 141 -282 419 -501 790 -624 247
-81 466 -109 800 -103 l240 5 52 -47 c131 -116 379 -217 608 -249 42 -6 136
-11 208 -11 204 0 310 30 375 105 26 29 32 44 32 83 0 64 -28 105 -98 148 -31
19 -96 58 -144 87 -86 52 -122 80 -167 130 l-24 27 60 54 c178 162 307 386
355 616 26 126 21 335 -12 455 -26 97 -93 242 -155 336 -144 216 -439 440
-702 533 l-38 13 -17 -86z"/>
<path d="M3549 2143 c-24 -32 -61 -77 -82 -100 l-40 -43 237 0 236 0 0 100 0
100 -154 0 -154 0 -43 -57z"/>
<path d="M2935 1641 c-60 -31 -159 -76 -220 -98 l-110 -42 648 0 647 -1 0 100
0 100 -427 -1 -428 -1 -110 -57z"/>
</g>
</svg>
